<mxfile host="app.diagrams.net" agent="Mozilla/5.0 (Macintosh; Intel Mac OS X 10_15_7) AppleWebKit/605.1.15 (KHTML, like Gecko) Version/17.6 Safari/605.1.15" version="24.7.16">
  <diagram name="Page-1" id="zKJSg474zFUpfC8e5f8t">
    <mxGraphModel dx="1974" dy="664" grid="1" gridSize="10" guides="1" tooltips="1" connect="1" arrows="1" fold="1" page="1" pageScale="1" pageWidth="827" pageHeight="1169" math="0" shadow="0">
      <root>
        <mxCell id="0" />
        <mxCell id="1" parent="0" />
        <mxCell id="clkhZw_3v-03GrpoqzjB-17" value="" style="edgeStyle=orthogonalEdgeStyle;rounded=0;orthogonalLoop=1;jettySize=auto;html=1;" edge="1" parent="1" source="xmXq3l9Uws817rKE1H1e-1" target="clkhZw_3v-03GrpoqzjB-3">
          <mxGeometry relative="1" as="geometry" />
        </mxCell>
        <mxCell id="xmXq3l9Uws817rKE1H1e-1" value="Входящие задачи&amp;nbsp;" style="rounded=1;whiteSpace=wrap;html=1;" parent="1" vertex="1">
          <mxGeometry x="-473" y="80" width="120" height="60" as="geometry" />
        </mxCell>
        <mxCell id="clkhZw_3v-03GrpoqzjB-6" value="" style="edgeStyle=orthogonalEdgeStyle;rounded=0;orthogonalLoop=1;jettySize=auto;html=1;" edge="1" parent="1" source="clkhZw_3v-03GrpoqzjB-3" target="clkhZw_3v-03GrpoqzjB-5">
          <mxGeometry relative="1" as="geometry" />
        </mxCell>
        <mxCell id="clkhZw_3v-03GrpoqzjB-13" value="" style="edgeStyle=orthogonalEdgeStyle;rounded=0;orthogonalLoop=1;jettySize=auto;html=1;exitX=0;exitY=1;exitDx=0;exitDy=0;" edge="1" parent="1" source="clkhZw_3v-03GrpoqzjB-3" target="clkhZw_3v-03GrpoqzjB-7">
          <mxGeometry relative="1" as="geometry" />
        </mxCell>
        <mxCell id="clkhZw_3v-03GrpoqzjB-16" style="edgeStyle=orthogonalEdgeStyle;rounded=0;orthogonalLoop=1;jettySize=auto;html=1;exitX=1;exitY=1;exitDx=0;exitDy=0;entryX=0.5;entryY=0;entryDx=0;entryDy=0;" edge="1" parent="1" source="clkhZw_3v-03GrpoqzjB-3" target="clkhZw_3v-03GrpoqzjB-15">
          <mxGeometry relative="1" as="geometry" />
        </mxCell>
        <mxCell id="clkhZw_3v-03GrpoqzjB-3" value="Распределяем&lt;div&gt;задачи по направлениям&lt;/div&gt;" style="rhombus;whiteSpace=wrap;html=1;" vertex="1" parent="1">
          <mxGeometry x="-478" y="160" width="130" height="130" as="geometry" />
        </mxCell>
        <mxCell id="clkhZw_3v-03GrpoqzjB-5" value="Склад, логистика, маркировка" style="whiteSpace=wrap;html=1;" vertex="1" parent="1">
          <mxGeometry x="-683" y="360" width="120" height="60" as="geometry" />
        </mxCell>
        <mxCell id="clkhZw_3v-03GrpoqzjB-7" value="Закупки, товары" style="whiteSpace=wrap;html=1;" vertex="1" parent="1">
          <mxGeometry x="-540" y="360" width="120" height="60" as="geometry" />
        </mxCell>
        <mxCell id="clkhZw_3v-03GrpoqzjB-15" value="Продажи" style="whiteSpace=wrap;html=1;" vertex="1" parent="1">
          <mxGeometry x="-400" y="360" width="120" height="60" as="geometry" />
        </mxCell>
      </root>
    </mxGraphModel>
  </diagram>
</mxfile>
